<svg width="318" height="180" viewBox="0 0 318 180" fill="none" xmlns="http://www.w3.org/2000/svg">
<rect width="318" height="180" rx="4" fill="#FAFAFA"/>
<path d="M128 71C125.256 71 123 73.2153 123 75.9769V111.695C123 112.423 123.579 113 124.311 113H131.689C132.421 113 133 112.423 133 111.695V75.9769C133 73.2153 130.774 71 128 71" fill="#061A54"/>
<path d="M101.39 71.0234C95.2844 71.0234 91.0618 73.5426 87.9328 78.3686C83.7709 68.5346 69.5842 68.747 63.6907 77.7919C62.7794 73.9372 59.3466 71.0841 55.2455 71.0841H54C54 78.7024 54 102.893 54 111.695C54 112.423 54.5772 113 55.3063 113H62.6579C63.387 113 63.9641 112.423 63.9641 111.695V90.0237C63.9641 84.5603 66.5767 79.2791 71.9841 79.2791C77.0269 79.2791 79.4572 82.4964 79.4572 89.1131V111.665C79.4572 112.393 80.0344 112.97 80.7634 112.97H88.115C88.8441 112.97 89.4213 112.393 89.4213 111.665V90.0237C89.4213 84.8335 92.3376 79.2791 97.4412 79.2791C103.73 79.2791 105.005 83.5284 105.005 89.9023V111.695C105.005 112.423 105.583 113 106.312 113H113.694C114.423 113 115 112.423 115 111.695V87.7776C114.97 77.6401 111.385 71.0234 101.39 71.0234" fill="#061A54"/>
<path d="M149.908 72.9937C148.192 70.6651 144.822 70.3022 142.625 72.2982C140.729 74.0522 140.578 77.016 142.113 79.1027L152.014 92.4395L142.053 105.897C140.518 107.984 140.638 110.948 142.565 112.702C144.761 114.698 148.132 114.335 149.848 112.006L163.752 93.2258C164.083 92.7722 164.083 92.1371 163.752 91.6835L149.908 72.9937Z" fill="#061A54"/>
<path d="M181.081 72.9937C182.798 70.6651 186.173 70.3022 188.373 72.2982C190.272 74.0522 190.422 77.016 188.885 79.1027L178.971 92.4395L188.946 105.897C190.483 107.984 190.362 110.948 188.433 112.702C186.234 114.698 182.858 114.335 181.141 112.006L167.249 93.1956C166.917 92.7419 166.917 92.1068 167.249 91.6532L181.081 72.9937Z" fill="#1FBAED"/>
<path fill-rule="evenodd" clip-rule="evenodd" d="M222.577 104.855C223.037 104.703 223.559 104.855 223.866 105.249L227.15 109.554C227.641 110.19 227.426 111.16 226.659 111.494C216.468 116.102 194 116.617 194 92.8809C194 69.9935 217.973 66.1739 227.212 76.2686C230.987 80.3611 232 85.6661 232 91.153C232 93.6084 230.005 95.5789 227.519 95.5789H204.313C205.204 107.705 217.328 106.644 222.577 104.855ZM213.737 78.9969C211.373 78.9969 209.317 79.876 207.567 81.6039C205.94 83.2409 204.835 85.3629 204.344 87.9093H221.932C221.871 85.0598 221.134 82.8771 219.784 81.3614C218.341 79.7851 216.315 78.9969 213.737 78.9969Z" fill="#1FBAED"/>
<path d="M262.06 71.5474V71.5474C260.305 71.0608 257.46 71.1825 256.552 71.365C253.012 72.4294 250.409 74.8624 248.835 78.5424C248.291 74.2846 244.659 71 240.271 71H239C239 78.6336 239 102.903 239 111.692C239 112.422 239.575 113 240.301 113H247.625C248.351 113 248.926 112.422 248.926 111.692V91.9848C248.926 83.8342 253.496 78.1166 261.243 81.0058C262.091 81.3099 262.998 80.7017 262.998 79.7893V72.8248C263.029 72.2469 262.605 71.6995 262.06 71.5474" fill="#1FBAED"/>
<path d="M123 58.5C123 61.5486 125.476 64 128.516 64C131.556 64 134 61.5171 134 58.5C134 55.4829 131.524 53 128.484 53C125.444 53 123 55.4829 123 58.5" fill="white"/>
</svg>
